<?xml version="1.0" encoding="UTF-8"?><svg id="Layer_1" xmlns="http://www.w3.org/2000/svg" viewBox="0 0 388 369"><defs><style>.cls-1{fill:#fff;}</style></defs><path class="cls-1" d="M388,0v369H0V0h388ZM308.21,89.77c.93-.74,8.69,4.85,12.41-.06,3.78-5.01-1.65-10.44-2.35-15.49-1.79-12.92,1.74-12.93,5.39-22.36,3.13-8.07-.26-19.55-6.57-25.32-9.34-8.54-19.24-2.07-30.05-4.86-11.74-3.03-14.71-11.81-29.23-10.73-8.76.65-14.21,5.17-20.96,10.03-34.06-6.18-74.02,1.2-93.2,32.46-7.63-.29-18.17-2.42-24.9,1.97-9.05,5.9-9.47,20.18-16.47,27.41-10.28,10.61-27.52,4.46-24.21,27.13,2.78,19.07,24.63,16.99,30.86,29.98,2.27,4.73,1.26,10.89,5.72,14.22,6.52,4.87,12.85-3.09,13.04-9.53,1.77-.07,2.12-.5,1.99,1.49-.2,3.07-1.52,14.18-2.53,16.44-.89,2-11.2,9.83-13.95,12.98-4.05,4.64-6.93,10.3-10.97,14.96-2.56,1.3-1.43-7.21-1.24-8.23,1.93-10.86,20.5-34.26-7.58-21.54-26.59,12.05-30.97,29.03-17.95,55.21-11.54,17.6-11.83,40.53-6.13,60.32,1.45,5.03,6.31,13.17,6.93,16.84.46,2.73-1.1,6.61-.24,10.38.74,3.24,5.41,6.01,5.5,7.18.07.96-6.17,13.48-6.61,18.08-1.63,16.94,17.28,16.64,29.36,16.39,10.59-.22,12.78-2.5,21.33-4.61,5.77-1.43,10.25.83,14.49-5.45,2.93-4.33,1.38-8.29,9.52-6.93-2.52,6.87-6.5,15.49-2,22.44,5.31,8.21,10.72,4.57,18.45,5.49,4.83.57,10.01,2.61,14.99,2.97,11.29.81,25.12-4.07,36.14-6.72,6.33-1.52,9.84.07,14.74-6.21,7.39-9.46.96-15.49-.26-24.71-2.81-21.2,14.66-34.93,34.07-37.21,2.06,5.23,2.88,11,4.81,16.28,1.65,4.53,6.88,12.33,7.51,15.43,1.93,9.36-2.39,21,8.5,27.4,8.66,5.1,12.88,2.58,21.04,2.89,3.03.12,6.57,1.76,9.82,1.62,4.75-.2,23.24-4.78,28.51-6.4s10.25-6.47,10.6-12.14c.78-12.62-19.08-18.43-25.89-26.07-13.55-15.21-5.16-33.95-6.49-51.35-.64-8.32-3.64-17.6-4.85-26.07-1.55-10.82-1.05-19.78-4.1-30.81-1.52-5.5-8.76-19.79-8.98-22.99s5.09-8.74,6.79-12.08c12.01-23.51,3.97-47.27-4.81-70.12Z"/><path d="M308.21,89.77c8.78,22.85,16.82,46.61,4.81,70.12-1.7,3.33-7.01,8.93-6.79,12.08s7.46,17.5,8.98,22.99c3.05,11.03,2.55,19.99,4.1,30.81,1.21,8.47,4.21,17.75,4.85,26.07,1.33,17.4-7.06,36.15,6.49,51.35,6.81,7.64,26.68,13.44,25.89,26.07-.35,5.67-5.45,10.56-10.6,12.14s-23.76,6.2-28.51,6.4c-3.26.13-6.79-1.5-9.82-1.62-8.16-.31-12.38,2.2-21.04-2.89-10.89-6.41-6.57-18.04-8.5-27.4-.64-3.09-5.86-10.89-7.51-15.43-1.92-5.28-2.75-11.05-4.81-16.28-19.4,2.28-36.88,16.01-34.07,37.21,1.22,9.22,7.65,15.25.26,24.71-4.9,6.27-8.41,4.68-14.74,6.21-11.02,2.65-24.85,7.53-36.14,6.72-4.98-.36-10.16-2.39-14.99-2.97-7.73-.92-13.14,2.72-18.45-5.49-4.5-6.95-.52-15.56,2-22.44-8.14-1.36-6.59,2.6-9.52,6.93-4.24,6.29-8.72,4.03-14.49,5.45-8.55,2.11-10.74,4.38-21.33,4.61-12.08.25-30.99.55-29.36-16.39.44-4.6,6.69-17.11,6.61-18.08-.09-1.16-4.77-3.93-5.5-7.18-.86-3.78.7-7.65.24-10.38-.62-3.67-5.49-11.81-6.93-16.84-5.7-19.79-5.42-42.72,6.13-60.32-13.02-26.18-8.64-43.17,17.95-55.21,28.08-12.72,9.51,10.68,7.58,21.54-.18,1.03-1.31,9.53,1.24,8.23,4.04-4.66,6.92-10.33,10.97-14.96,2.75-3.15,13.06-10.98,13.95-12.98,1-2.26,2.33-13.37,2.53-16.44.13-1.98-.22-1.56-1.99-1.49-.19,6.45-6.53,14.4-13.04,9.53-4.46-3.33-3.45-9.49-5.72-14.22-6.23-12.99-28.07-10.91-30.86-29.98-3.31-22.67,13.93-16.52,24.21-27.13,7-7.23,7.42-21.51,16.47-27.41,6.72-4.38,17.27-2.26,24.9-1.97,19.18-31.26,59.14-38.64,93.2-32.46,6.75-4.86,12.21-9.38,20.96-10.03,14.53-1.07,17.49,7.71,29.23,10.73,10.81,2.79,20.71-3.68,30.05,4.86,6.31,5.77,9.7,17.25,6.57,25.32-3.65,9.43-7.18,9.44-5.39,22.36.7,5.05,6.13,10.48,2.35,15.49-3.71,4.92-11.48-.68-12.41.06ZM316.18,83.78c-29.09-3.56-26.47-32.74-35.42-52.85-5.12-11.51-18.49-18.78-30.65-13.71-2.22.92-8.89,5.22-9.73,7.23-.69,1.68.66,1.34,1.26,1.7,1.14.67,8.19,4.24,8.69,3.77,1.82-11.35,12.41-12.31,20.89-6.42,15.36,10.66,10.68,42.56,28.66,56.11,3.21,2.42,13.43,8.94,16.28,4.17ZM306.2,99.73c.5-.63-3.07-14.33-3.93-15.51-1.24-1.7-6.06-3.96-8.02-5.95-4.5-4.56-6.91-11.79-11.44-16.49-5.52-5.73-15.65-10.07-20.54-15.37-3.67-3.98-3.97-7.7-9.02-11.93-26.17-21.92-79.48-8.26-99.63,16.9-6.44,8.04-8.83,22.92-11.72,33.16-.66,2.33-2.93,5.42-3.14,6.95-.27,1.99,1.66,3.35,1.94,5.71,1.1,9.12-7.4,16.14-10.01,23.82l10.93,40.54c1.5,1.84,1.73-.27,1.96-1.52,1.38-7.68,2.99-18.99,12.99-19.42l-7.53,7.92c-3.71,8.28-5.02,19.09-1.64,27.68,1.3,3.31,10.17,16.26,12.84,18.08,3.31,2.26,7.57,3,10.99,4.97,8.17,4.71,14.71,14.03,25.25,12.14l-8.52-5.93c-5.9-12.39-23.83-15.52-28.88-26.97-2.57-5.83-2.92-9.71-.68-15.65,3.88-10.26,12.5-12.59,16.98-20.91,1.29-2.39,3.99-10.34,4.12-12.85.08-1.67.36-1.57-1.27-1.28-5.99,1.09-11.25,2.7-17.64,1.81l13.78-2.66,5.17-3.3c-7.72,2.49-14.2,2.5-21.94-.02,2.49-7.05,8.28-24.05,17.44-22.95,1.36.16,3.11.79,1.51,2.02-8.19-.26-13.72,8.67-14.96,15.96l4.98-8.47c3.79-4.36,8.07-7.54,14.23-6.26,3.17.66,5.23,4.05,8.7,3.76-1.38-3.82-6.23-5.57-7.52-9.92-.88-2.96-.37-6.02-.44-9.01l3.15,9.3,6.49,6.5c3.65-2.57,12.71-9.64,12.12-14.04-.43-3.25-5.17-16.92-7.56-18.74-8.21-6.28-25.61,4.42-31.14,11.52l-15.01,22.89c4.39-17.54,21.56-39.03,41.26-38.02,12.36.63,10.74,15.02,15.6,23.1l7.86-3.63-12.83-45.75c1.71,1.1,2.99,4.79,3.75,6.71,1.92,4.84,10.35,37.8,12.67,38.03l11.5-2.87c-3.3-10.14-9.61-27.18,2.98-33.41,14.57-7.21,28.13-.99,37.91,10.47-6.59-2.55-12.53-9.52-19.69-10.72-24.29-4.09-29.05,13.09-17.92,31.41l22.65,1.27.98-4.99,2,5.98c-.91-9.03,8.67-10.95,15.96-9.99-.41-2.05-4.88-2.16-6.46-2.05-3.58.25-4.44,2.57-7.5,3.05,8.83-12.65,16.95,1.67,25.93,3.99l-.5-2.98c1.61,1.16,1.73,3.22,2.81,4.69.63.85,4.25,1.51,2.19,3.28l-6.49-2.98c4.07,8.38-7.5,11.52-13.96,10.97.31,5.06,8.7,2.39,11.96,2l-6.98,1.99c-1.37,1.3,4.98,12.12,11.71,9.22,5.73-2.47,4.48-10.41,6.87-11.15l12.34,5.92ZM283.26,58.84c.98-6.02-12.53-28.69-18.95-21.47s15.56,16.56,18.95,21.47ZM117.7,148.59c1.77.36,2.45-.91,3.5-1.98,15.45-15.78-6.31-55.13-2.28-75.08,1.48-7.3,9.7-10.4,16.3-7.78,3.04,1.2,3.9,4.22,6.87,5.06,7.77-8.77,4.68-11.41-5.9-12.01s-17.49,2.12-20.43,12.57c-4.58,16.26,11.33,45.73,7.68,67.52-.8,4.76-4.11,7.57-5.74,11.7ZM259.34,209.43c10.43,2.15,23.7-10.17,22.9-20.39-.19-2.47-2.84-4.1-2.54-5.59.24-1.22,13-15.36,15.35-19.58,5.99-10.75,14.54-37.24,7.63-48.13-4.66-7.35-8.98-4.21-15.82-5.12-9.15-1.21-12.22-9.72-18.05-14.87-25.43-22.48-61.98-9.13-80.12,15.63-6.63,9.05-5.19,15.91-8.42,25.49-4.52,13.42-18.92,16.54-20.6,31.28-1.79,15.69,10.3,17.32,19.35,24.37,8.05,6.27,11.79,17.57,23.98,16.99,3.42-.16,5.84-1.82,8.95-2.07,6.29-.5,13.1.38,19.45,0,.81-3.24-3.57-1.67-6.04-2.43-3.87-1.18-8.6-4.08-12.51-4.49-7.24-.76-10.24,4.43-17.68-.23-3.51-2.2-26.79-22.68-29.11-25.74-5.26-6.92-1.23-12.09,6.56-9.55,9.3,3.03,13.81,17.72,28.69,13.84,6.31-1.64,17.42-15.01,17.1-20.77-.07-1.31-1.57-2.28-1.66-3.14-.29-2.75-.74-5.4-1.02-7.95-.32-2.89,2.83-5.99.57-9.66-1.73-2.8-7.29-1.76-7.78-7.27l-4.02.6,2.8-3.42-1.81-6.55-4.98.99c.95-3.69,9.08-1.18,9.97-1.99.61-2.5-5.36-5.34-7.27-4.85-8.71,4.96-7.38,12.8-10.2,20.79-.72,2.03-10.46,20.81-13.44,17.96,11.31-9.89,9.84-27.75,18.41-37.93,5.87-6.96,3.98-5.01,8.07-12.87,7.79-14.94,30.32-20.17,39.82-4.16,21.48-13.82,23.37,21.27,43.41,19.07-.08,1.54-4.51,2-5.49,1.99-16.44-.17-20.36-35.14-39.38-17.44-1.21,2.93,6.21.75,6.94,1.52.81.85-.88,6.39,7.01,5.97-1.99,4.85.97,7.27,1.01,11.94-10.64-1.2-.68,14.95,2.57,18.87,5.51,6.65,13.57,10.91,22.39,8.59,10.23-2.69,11.45-20.18,16.63-27.2.66-.9.03-1.77,2.28-1.25,2.24,10.14-1.46,29.02-8.95,36.42-2.23,2.2-6.75,4.15-8.48,6.48-3.49,4.69-2.72,13.64-8,17.93-7.2-19.17-12.96-41.06-38.38-26.42l10.58,10.34,17.32,32.04c-10.65-6.16-12.49-20.81-19.96-30.39-4-5.13-11.08-11.58-17.88-11.44-1.48,6.05-5.13,12.6-8.62,17.81-3.07,4.59-6.73,8.46-10.4,12.54,8.66,4.03,36.44,31.26,45.65,22.2.98-.96.99-3.79,2.73-4.72,2.65,1.64.28,3.65.5,5.96ZM136.64,90.75l-6.04,2.62-.93,22.31,4.79-5.68c3.35-6.59,5.57-12.22,2.18-19.25ZM285.27,182.5c7.66-.87,12.93-9.98,16.33-16.07,12.67-22.69,21.1-56.83-6.87-71.66l-3.02,7.92-6.44,5.01c5.96,2.09,11.34-.64,16.51,3.95,12.73,11.29-.31,40.57-5.06,53.89l-11.45,16.97ZM225.42,97.74c-.88,2.89,3.31,12.61,6.46,11.96,4.06-.84-1.31-5.02-1.9-6.06-1.16-2.02-.6-6.14-4.56-5.9ZM222.37,100.76c-6.15,2.48-13.51-1.2-14.69,6.7-1.09,7.24,4.3,5.5,9.8,4.78,3.79-2.48-8.69-13.15,4.48-6.54l.42,6.53,4.04.46-4.04-11.93ZM297.25,135.64c-1.77,6.99-5.53,15.69-13.57,16.85-19.17,2.78-27.87-17.9-45.29-20.84,14.72,9.6,45.48,40.81,57.87,12.48.67-1.53,3.33-7.64.99-8.49ZM176.55,172.54c30.46,33.45,47.88-8.9,55.85-34.91-12.06,15.59-13.18,48.28-40.15,43.64-6.11-1.05-10.12-6.56-15.7-8.73ZM98.75,163.57c-22.07,6.15-33.35,25.79-18.43,45.87l15.43-11.48c-14.15-3.19-2.98-26.88,3-34.39ZM285.4,184.63c.74,11.09-5.23,22.73-16.1,26.29-4.32,1.41-16.74,1.98-21.44,1.5s-10.35-4.84-12.79-4.74-7.53,2.18-11.31,2.36c-3.28.16-6.73-1.04-10.72-.53-4.55.59-9.85,3.97-14.28,4.65-13.06,2.02-18.09-6.91-27.89-12.53-12.8-7.34-16.07-6.39-24.04-20.84-3.3-5.98-3.5-12.68-8.17-17.25-2.75,4.71-2.25,9.5-3.28,14.18-3.48,15.85-8.47,25.31-4.21,41.66,3.5,13.43,10.36,28.69,18.45,39.89-3.34,3.03-14.12-19.08-13.98-21.92-1.9-.22-.64,1.94-.51,3,1.37,10.82,4.81,24.66,9.33,34.56,7.12,15.6,12.5,17.34,15.06,36.89.55,4.21-2.46,7.78,4.72,10.1l10.32-3.77c-4.27,7.51-13.21,2.74-17.97,8.45s-12.54,24.37,2.01,22.46c-.15-5.45-.7-10.79,3.5-14.96l.41,14.3c.73,1.13,7.17,2.78,8.57,2.68,4.94-.35.42-16.37,7.47-16.98-3.36,6.38-1.34,11.57.58,18,16.51,2.49,26.53-3.02,16.38-19.99,2.01-.45,3.99,3.3,4.81,4.66,1.5,2.5,4.09,10.64,5.83,11.19,6.41-1.69,22.32-1.93,23.04-10.53.38-4.52-9.79-14.76-14.4-16.15-2.02-.19-5.72,5.47-7.94,6.71-8.33,4.63-16.49.35-24.76.09-6.67-.21-13.38,2.77-19.49-1.46,7.48.19,14.95-.63,22.48-.54,2.35.03,4.54,1.02,6.9,1.08,34.76.85,12.66-30.21,10.62-48.51-1-9.04,3.37-19.98-5.75-25.16l-11.3-5.14c6.63-.01,12.22,3.26,17.94,5.97l.99-6.97c.36,13.52-2.51,27.54,4.51,39.88l1.98-4.99.5,5.99h7.97s.01-5.98.01-5.98c3.14.8-.12,4.18,1.92,5.53,2.37,1.57,5.55-.37,8.04-.54l-15.96,8.96c11.69,1.69,20.36-3.43,29.92-8.98l-.49-1.98c-3.67.19-7.94.08-11.19-1.76-1.11-.62-1.71.07-1.27-2.21l3.49-2.01c.76-.29.58,1.95,1.45,2.54s12.01-1.4,13.98-2.06c14.29-4.76,27.55-19.64,32.94-33.39l1.01,2.97c40.82-5.42,30.81-47.5,16.92-73.79-5.55,2.23-7.84,8.51-14.82,9.1ZM168.55,171.54c-.58-.53-2.67-.21-1.97,1.48.96,1.03,1.95,2.04,2.97,3.02,4.79,4.57,22.78,21.03,27.42,23.45,1.6.83,2.58,1.35,4.51.97.6-2.59-.77-1.74-1.88-2.57-9.97-7.41-20.26-15.15-29.58-23.35-1.19-1.05-1.32-2.85-1.47-2.99ZM124.68,174.54c-1.14-1.05-9.42,7.69-10.49,8.95-2.68,3.18-5.4,9.33-8.4,11.55-3.16,2.33-6.96,1.52-8.77,2.7-24.84,16.23-31.13,51.53-22.5,78.3,1.25,3.87,5.63,11.19,6.1,13.93.59,3.52-2.13,6.49-1.44,10.26.8,4.31,5.22,6.79,6.12,8.97.57,1.36-.76,3.04-.12,3.99.98,1.45,11.74,3.75,14.07,3.95,7.79.67,19.6-.43,23.62-8.26,1.47-2.86,5.08-17.9-.68-16.65-.65.14-5.11,6.5-7.01,7.96-7.44,5.76-17.24,5.6-24.43-.5,4.06-.15,7.12,3.41,11.5,3.54,3.13.09,5.52-1.52,8.44-2.06v-1.98s-6.97,0-6.97,0c13.81-.02,23.5-16.94,21.85-29.35-1.27-9.52-19.02-24.49-22.4-37.43-.27-1.04-1.47-5.06.54-5.04l2.84,7.64,9.13,14.29c-3.54-14.88-10.77-29.21-9.95-44.87l14.1,45.23c5.05,10.91,11.92,21.59,21.79,28.56-4.08-10.26-6.65-20.87-8.65-31.73-1.75-9.46-5.97-29.09-6.34-37.63-.14-3.28,1.38-6.14,1.02-9.42l-5.99,9.46-2.97,1.51c-4.65-12.29-3.14-26.07,5.97-35.89ZM217.94,196.47c-5.1-.85-12.1.62-17.46,0-.43.48,3.24,2.99,3.49,2.99h14.96c1.37,0,4.77,2.93,6.48,1.5-1.49-1.78-5.38-4.14-7.48-4.49ZM314.18,232.37l-10.63,11.8-20.82,8.1-14.23,20.69c1.3,9.54,3.35,19.57,7.03,28.48,1.74,4.22,4.44,11.02,8.69,12.77-2.55,4.92-2.97,14.07-.68,19.12,2.06,4.54,15.66,11.16,17.48,5.05l.7-12.24c5.04,6.6,1.91,16.55,12.9,14.87s5.89-9.21,3.74-15.59c-.22-.65-2.09-3.48.31-3.27s7.51,13.14,8.63,15.77c17.05.64,3.95-13.14-1.15-19.77,5.98-.02,12.09,15.53,13.95,16.47,3.23,1.64,8.27-.55,8.96-4.03,2.24-11.22-10.23-17.17-18.51-21.45-2.22-.12-7.43,4.92-10.37,6.52-10.1,5.49-23.61,7.06-34.93,7.45.41-1.94,2-1.75,3.49-1.99,13.48-2.17,28.41-2.85,38.37-13.57-6.25-8.03-10.08-18.51-10.01-28.83.03-4.7,1.83-10.31,2.06-14.95.53-10.94-2.63-20.9-4.98-31.41ZM148.62,290.2l-16.95-11.95c.2,1.39-.49,3.77.16,4.82.48.78,14.45,7.1,16.79,7.13ZM126.76,334.01c2.88.55,5.67-.76,7.43-2.92,1.01-2.13-.4-6.43-1.34-8.66-5.6-13.3-14.71-4.07-24.6-3.26-8.74.72-16.43-1.32-24.82-3.11-6.51,11-9.13,22.01,7.33,23.01.63-.55-4.9-14.65,1.99-14.95-.11,5.79,0,17.43,8.24,15.76,7.13-1.44,2.14-11.06,3.23-15.76,5.24,2.41,4.89,11.32,6.98,13.97s9.62-1.83,10.92-4.05c2.48-4.22.87-10.84-1.44-14.9h1.98s4.09,14.86,4.09,14.86Z"/><path class="cls-1" d="M285.4,184.63c6.98-.6,9.27-6.88,14.82-9.1,13.89,26.29,23.9,68.36-16.92,73.79l-1.01-2.97c-5.4,13.75-18.66,28.63-32.94,33.39-1.97.66-13.13,2.64-13.98,2.06s-.7-2.84-1.45-2.54l-3.49,2.01c-.44,2.27.16,1.58,1.27,2.21,3.25,1.84,7.53,1.95,11.19,1.76l.49,1.98c-9.56,5.56-18.23,10.68-29.92,8.98l15.96-8.96c-2.49.17-5.67,2.11-8.04.54-2.04-1.35,1.22-4.73-1.92-5.53v5.98s-7.98,0-7.98,0l-.5-5.99-1.98,4.99c-7.02-12.33-4.16-26.36-4.51-39.88l-.99,6.97c-5.72-2.71-11.32-5.98-17.94-5.97l11.3,5.14c9.13,5.18,4.75,16.13,5.75,25.16,2.03,18.3,24.13,49.36-10.62,48.51-2.36-.06-4.54-1.05-6.9-1.08-7.52-.09-14.99.73-22.48.54,6.1,4.23,12.81,1.25,19.49,1.46,8.27.26,16.43,4.54,24.76-.09,2.22-1.23,5.92-6.9,7.94-6.71,4.61,1.39,14.78,11.63,14.4,16.15-.72,8.61-16.63,8.85-23.04,10.53-1.75-.55-4.33-8.68-5.83-11.19-.82-1.36-2.8-5.11-4.81-4.66,10.15,16.98.13,22.48-16.38,19.99-1.92-6.43-3.94-11.63-.58-18-7.05.6-2.52,16.63-7.47,16.98-1.4.1-7.84-1.55-8.57-2.68l-.41-14.3c-4.2,4.17-3.65,9.51-3.5,14.96-14.54,1.92-6.92-16.55-2.01-22.46s13.7-.94,17.97-8.45l-10.32,3.77c-7.17-2.32-4.16-5.89-4.72-10.1-2.56-19.55-7.94-21.29-15.06-36.89-4.52-9.9-7.95-23.74-9.33-34.56-.13-1.06-1.39-3.22.51-3-.14,2.84,10.64,24.95,13.98,21.92-8.08-11.2-14.94-26.46-18.45-39.89-4.26-16.35.73-25.81,4.21-41.66,1.03-4.69.53-9.47,3.28-14.18,4.67,4.57,4.87,11.27,8.17,17.25,7.97,14.46,11.24,13.5,24.04,20.84,9.8,5.62,14.83,14.54,27.89,12.53,4.43-.68,9.73-4.07,14.28-4.65,3.99-.51,7.44.69,10.72.53,3.79-.19,8.78-2.26,11.31-2.36s8.21,4.28,12.79,4.74,17.12-.09,21.44-1.5c10.87-3.56,16.84-15.2,16.1-26.29ZM222.43,279.23c4.46.76,6.78-.81,9.98-3.47,14.34-11.92,7.82-33.2,7.96-49.37-1.74-.23-.94,2.26-.99,3.48-.74,18.13,6.27,32.03-10.5,45.36l-6.45,4.01Z"/><path class="cls-1" d="M306.2,99.73l-12.34-5.92c-2.39.74-1.13,8.68-6.87,11.15-6.73,2.9-13.08-7.91-11.71-9.22l6.98-1.99c-3.25.39-11.65,3.06-11.96-2,6.46.55,18.03-2.59,13.96-10.97l6.49,2.98c2.07-1.77-1.56-2.43-2.19-3.28-1.08-1.47-1.21-3.53-2.81-4.69l.5,2.98c-8.98-2.32-17.1-16.64-25.93-3.99,3.06-.47,3.91-2.8,7.5-3.05,1.58-.11,6.06,0,6.46,2.05-7.28-.96-16.86.95-15.96,9.99l-2-5.98-.98,4.99-22.65-1.27c-11.13-18.32-6.37-35.5,17.92-31.41,7.16,1.21,13.09,8.17,19.69,10.72-9.78-11.46-23.34-17.68-37.91-10.47-12.59,6.23-6.27,23.27-2.98,33.41l-11.5,2.87c-2.32-.23-10.75-33.19-12.67-38.03-.76-1.92-2.04-5.61-3.75-6.71l12.83,45.75-7.86,3.63c-4.86-8.08-3.24-22.47-15.6-23.1-19.7-1-36.87,20.48-41.26,38.02l15.01-22.89c5.53-7.11,22.94-17.8,31.14-11.52,2.38,1.82,7.13,15.49,7.56,18.74.58,4.41-8.47,11.47-12.12,14.04l-6.49-6.5-3.15-9.3c.08,3-.43,6.06.44,9.01,1.29,4.35,6.14,6.1,7.52,9.92-3.47.29-5.53-3.1-8.7-3.76-6.16-1.28-10.44,1.9-14.23,6.26l-4.98,8.47c1.23-7.29,6.77-16.22,14.96-15.96,1.6-1.23-.15-1.86-1.51-2.02-9.16-1.09-14.96,15.9-17.44,22.95,7.75,2.52,14.22,2.51,21.94.02l-5.17,3.3-13.78,2.66c6.39.89,11.65-.72,17.64-1.81,1.63-.3,1.36-.39,1.27,1.28-.12,2.51-2.83,10.46-4.12,12.85-4.48,8.32-13.11,10.66-16.98,20.91-2.24,5.93-1.89,9.82.68,15.65,5.05,11.44,22.98,14.58,28.88,26.97l8.52,5.93c-10.54,1.89-17.08-7.43-25.25-12.14-3.42-1.97-7.68-2.71-10.99-4.97-2.66-1.82-11.53-14.77-12.84-18.08-3.38-8.59-2.07-19.39,1.64-27.68l7.53-7.92c-10,.43-11.61,11.74-12.99,19.42-.22,1.25-.46,3.35-1.96,1.52l-10.93-40.54c2.6-7.67,11.1-14.7,10.01-23.82-.28-2.36-2.22-3.72-1.94-5.71.21-1.53,2.48-4.62,3.14-6.95,2.89-10.23,5.28-25.12,11.72-33.16,20.15-25.16,73.46-38.82,99.63-16.9,5.04,4.23,5.34,7.95,9.02,11.93,4.89,5.3,15.01,9.64,20.54,15.37,4.53,4.7,6.94,11.93,11.44,16.49,1.96,1.99,6.77,4.25,8.02,5.95.86,1.17,4.43,14.88,3.93,15.51ZM235.39,34.9c-4.79-5.12-14.61-2.85-20.94-1.97,1.26,2.38,5.8-.06,8.32.06,3.75.17,8.77,1.42,12.62,1.92ZM183.53,44.89c-20.52,1.88-28.54,19.89-31.91,37.89,8.4-11.03,7.26-26.62,21.62-33.73,3.64-1.8,7.78-1.38,10.29-4.16ZM257.33,75.79c.35-2.74-3.13-3.49-3.78-5.68-.7-2.36.45-5.19-.7-7.27-3.67,4.1-.9,12.03,4.48,12.95Z"/><path class="cls-1" d="M259.34,209.43c-.22-2.31,2.14-4.32-.5-5.96-1.74.93-1.75,3.76-2.73,4.72-9.21,9.06-37-18.17-45.65-22.2,3.66-4.08,7.32-7.95,10.4-12.54,3.48-5.21,7.14-11.76,8.62-17.81,6.79-.15,13.87,6.31,17.88,11.44,7.47,9.58,9.31,24.24,19.96,30.39l-17.32-32.04-10.58-10.34c25.42-14.64,31.17,7.25,38.38,26.42,5.28-4.29,4.51-13.24,8-17.93,1.73-2.33,6.25-4.28,8.48-6.48,7.49-7.4,11.19-26.28,8.95-36.42-2.26-.52-1.62.35-2.28,1.25-5.18,7.02-6.4,24.51-16.63,27.2-8.82,2.32-16.87-1.94-22.39-8.59-3.25-3.92-13.22-20.07-2.57-18.87-.04-4.67-3-7.09-1.01-11.94-7.89.43-6.2-5.12-7.01-5.97-.73-.76-8.15,1.41-6.94-1.52,19.02-17.7,22.94,17.27,39.38,17.44.99.01,5.42-.45,5.49-1.99-20.03,2.21-21.93-32.89-43.41-19.07-9.49-16.01-32.03-10.78-39.82,4.16-4.1,7.86-2.21,5.91-8.07,12.87-8.57,10.18-7.1,28.04-18.41,37.93,2.98,2.84,12.73-15.93,13.44-17.96,2.82-7.99,1.49-15.83,10.2-20.79,1.91-.49,7.88,2.35,7.27,4.85-.89.81-9.02-1.7-9.97,1.99l4.98-.99,1.81,6.55-2.8,3.42,4.02-.6c.5,5.51,6.05,4.46,7.78,7.27,2.26,3.66-.88,6.76-.57,9.66.28,2.55.73,5.2,1.02,7.95.09.86,1.59,1.83,1.66,3.14.32,5.76-10.79,19.13-17.1,20.77-14.88,3.88-19.39-10.81-28.69-13.84-7.79-2.54-11.82,2.63-6.56,9.55,2.33,3.06,25.6,23.55,29.11,25.74,7.44,4.66,10.44-.54,17.68.23,3.91.41,8.64,3.31,12.51,4.49,2.48.75,6.85-.82,6.04,2.43-6.35.38-13.17-.5-19.45,0-3.11.25-5.53,1.91-8.95,2.07-12.19.57-15.93-10.73-23.98-16.99-9.05-7.04-21.13-8.67-19.35-24.37,1.68-14.74,16.08-17.86,20.6-31.28,3.23-9.58,1.79-16.43,8.42-25.49,18.14-24.76,54.69-38.11,80.12-15.63,5.82,5.15,8.9,13.65,18.05,14.87,6.85.91,11.16-2.23,15.82,5.12,6.91,10.89-1.64,37.37-7.63,48.13-2.35,4.22-15.11,18.36-15.35,19.58-.29,1.49,2.35,3.12,2.54,5.59.8,10.22-12.48,22.55-22.9,20.39ZM184.52,165.54c4.23,3.9,12.73-22.1,13.26-24.13.41-1.59.95-3.1.69-4.78-1.74.26-1.69,2.03-2.26,3.21-4.07,8.42-4.97,18.55-11.69,25.7Z"/><path class="cls-1" d="M124.68,174.54c-9.11,9.82-10.62,23.6-5.97,35.89l2.97-1.51,5.99-9.46c.36,3.27-1.16,6.14-1.02,9.42.36,8.55,4.59,28.18,6.34,37.63,2.01,10.86,4.57,21.47,8.65,31.73-9.87-6.97-16.75-17.66-21.79-28.56l-14.1-45.23c-.82,15.66,6.41,29.99,9.95,44.87l-9.13-14.29-2.84-7.64c-2.02-.03-.82,3.99-.54,5.04,3.38,12.93,21.14,27.91,22.4,37.43,1.65,12.4-8.04,29.33-21.85,29.35h6.97s0,1.97,0,1.97c-2.92.54-5.32,2.15-8.44,2.06-4.38-.13-7.44-3.69-11.5-3.54,7.19,6.1,16.99,6.26,24.43.5,1.9-1.47,6.35-7.82,7.01-7.96,5.75-1.26,2.14,13.79.68,16.65-4.02,7.83-15.84,8.93-23.62,8.26-2.33-.2-13.09-2.5-14.07-3.95-.64-.95.68-2.62.12-3.99-.9-2.18-5.33-4.66-6.12-8.97-.7-3.77,2.03-6.74,1.44-10.26-.46-2.74-4.85-10.06-6.1-13.93-8.63-26.76-2.34-62.07,22.5-78.3,1.81-1.19,5.61-.37,8.77-2.7s5.72-8.36,8.4-11.55c1.06-1.26,9.34-10,10.49-8.95Z"/><path class="cls-1" d="M314.18,232.37c2.35,10.51,5.52,20.47,4.98,31.41-.23,4.64-2.03,10.25-2.06,14.95-.07,10.32,3.76,20.8,10.01,28.83-9.96,10.72-24.88,11.4-38.37,13.57-1.48.24-3.08.05-3.49,1.99,11.32-.39,24.83-1.96,34.93-7.45,2.94-1.6,8.15-6.65,10.37-6.52,8.28,4.28,20.76,10.23,18.51,21.45-.7,3.48-5.74,5.67-8.96,4.03-1.86-.94-7.97-16.49-13.95-16.47,5.1,6.63,18.2,20.41,1.15,19.77-1.12-2.63-6.26-15.56-8.63-15.77s-.53,2.62-.31,3.27c2.15,6.38,6.94,13.97-3.74,15.59s-7.86-8.27-12.9-14.87l-.7,12.24c-1.82,6.11-15.42-.51-17.48-5.05-2.29-5.05-1.86-14.19.68-19.12-4.26-1.75-6.95-8.55-8.69-12.77-3.68-8.92-5.73-18.94-7.03-28.48l14.23-20.69,20.82-8.1,10.63-11.8Z"/><path class="cls-1" d="M126.76,334.01l-4.09-14.87h-1.98c2.31,4.07,3.92,10.69,1.44,14.91-1.3,2.22-8.9,6.6-10.92,4.05s-1.75-11.57-6.98-13.97c-1.09,4.7,3.9,14.32-3.23,15.76-8.25,1.67-8.35-9.98-8.24-15.76-6.9.3-1.36,14.4-1.99,14.95-16.46-1-13.84-12.02-7.33-23.01,8.39,1.79,16.08,3.83,24.82,3.11,9.89-.81,19-10.05,24.6,3.26.94,2.23,2.35,6.53,1.34,8.66-1.76,2.16-4.55,3.47-7.43,2.92Z"/><path class="cls-1" d="M285.27,182.5l11.45-16.97c4.75-13.33,17.79-42.61,5.06-53.89-5.17-4.58-10.54-1.86-16.51-3.95l6.44-5.01,3.02-7.92c27.96,14.83,19.53,48.96,6.87,71.66-3.4,6.1-8.67,15.21-16.33,16.07Z"/><path class="cls-1" d="M98.75,163.57c-5.98,7.52-17.15,31.2-3,34.39l-15.43,11.48c-14.92-20.08-3.64-39.72,18.43-45.87Z"/><path class="cls-1" d="M117.7,148.59c1.63-4.13,4.95-6.94,5.74-11.7,3.65-21.79-12.26-51.25-7.68-67.52,2.94-10.44,10.33-13.13,20.43-12.57s13.67,3.23,5.9,12.01c-2.97-.84-3.83-3.85-6.87-5.06-6.6-2.62-14.83.48-16.3,7.78-4.03,19.94,17.73,59.29,2.28,75.08-1.05,1.07-1.73,2.34-3.5,1.98Z"/><path class="cls-1" d="M316.18,83.78c-2.86,4.77-13.07-1.75-16.28-4.17-17.98-13.55-13.31-45.45-28.66-56.11-8.48-5.89-19.07-4.93-20.89,6.42-.5.46-7.55-3.1-8.69-3.77-.6-.35-1.95-.02-1.26-1.7.83-2.02,7.51-6.31,9.73-7.23,12.15-5.06,25.52,2.21,30.65,13.71,8.95,20.11,6.33,49.29,35.42,52.85Z"/><path class="cls-1" d="M283.26,58.84c-3.39-4.9-25.55-14.06-18.95-21.47s19.93,15.45,18.95,21.47Z"/><path class="cls-1" d="M176.55,172.54c5.58,2.16,9.59,7.68,15.7,8.73,26.97,4.64,28.09-28.05,40.15-43.64-7.97,26.02-25.39,68.37-55.85,34.91Z"/><path class="cls-1" d="M297.25,135.64c2.34.86-.32,6.96-.99,8.49-12.39,28.33-43.15-2.88-57.87-12.48,17.43,2.94,26.13,23.61,45.29,20.84,8.04-1.16,11.8-9.86,13.57-16.85Z"/><path class="cls-1" d="M222.37,100.76l4.04,11.93-4.04-.46-.42-6.53c-13.17-6.61-.69,4.05-4.48,6.54-5.5.72-10.89,2.46-9.8-4.78,1.19-7.89,8.54-4.21,14.69-6.7Z"/><path class="cls-1" d="M136.64,90.75c3.4,7.03,1.17,12.66-2.18,19.25l-4.79,5.68.93-22.31,6.04-2.62Z"/><path class="cls-1" d="M168.55,171.54c.15.14.28,1.94,1.47,2.99,9.31,8.2,19.61,15.94,29.58,23.35,1.11.83,2.48-.02,1.88,2.57-1.93.38-2.91-.13-4.51-.97-4.64-2.42-22.62-18.88-27.42-23.45-1.02-.97-2.01-1.99-2.97-3.02-.7-1.69,1.38-2.01,1.97-1.48Z"/><path class="cls-1" d="M217.94,196.47c2.1.35,5.99,2.71,7.48,4.49-1.7,1.43-5.11-1.5-6.48-1.5h-14.96c-.25,0-3.93-2.52-3.49-2.99,5.35.62,12.35-.85,17.46,0Z"/><path class="cls-1" d="M148.62,290.2c-2.34-.03-16.31-6.35-16.79-7.13-.65-1.05.04-3.43-.16-4.82l16.95,11.95Z"/><path class="cls-1" d="M225.42,97.74c3.96-.24,3.4,3.88,4.56,5.9.6,1.04,5.96,5.22,1.9,6.06-3.15.65-7.34-9.07-6.46-11.96Z"/><path d="M222.43,279.23l6.45-4.01c16.77-13.33,9.77-27.23,10.5-45.36.05-1.21-.75-3.71.99-3.48-.15,16.17,6.37,37.45-7.96,49.37-3.2,2.66-5.52,4.24-9.98,3.47Z"/><path d="M183.53,44.89c-2.51,2.78-6.65,2.36-10.29,4.16-14.36,7.1-13.21,22.7-21.62,33.73,3.37-18,11.39-36,31.91-37.89Z"/><path d="M235.39,34.9c-3.85-.49-8.88-1.75-12.62-1.92-2.52-.11-7.06,2.32-8.32-.06,6.32-.87,16.15-3.15,20.94,1.97Z"/><path d="M257.33,75.79c-5.38-.92-8.14-8.85-4.48-12.95,1.15,2.08,0,4.91.7,7.27.65,2.19,4.13,2.95,3.78,5.68Z"/><path d="M184.52,165.54c6.72-7.15,7.62-17.28,11.69-25.7.57-1.18.52-2.95,2.26-3.21.25,1.68-.28,3.19-.69,4.78-.53,2.03-9.03,28.03-13.26,24.13Z"/></svg>